<svg height="26" viewBox="0 0 26 26" width="26" xmlns="http://www.w3.org/2000/svg"><g style="stroke:#999;stroke-width:2;fill:none;fill-rule:evenodd;stroke-linecap:round;stroke-linejoin:round" transform="translate(1 1.631579)"><path d="m20.5263158 12.1326316v-10.51578949l-1.8947369-1.61684211-1.8947368 1.61684211-1.8947368 1.61052631 1.8947368 1.61684211-1.8947368 1.6168421 1.8947368 1.61052632-1.8947368 1.6168421v2.44421055c-2.2280288 1.286353-3.3142858 3.9088095-2.6484205 6.3938526.6658653 2.4850432 2.9178198 4.2130286 5.4905257 4.2130286 2.572706 0 4.8246605-1.7279854 5.4905258-4.2130286.6658653-2.4850431-.4203918-5.1074996-2.6484205-6.3938526zm-2.8421053 6.8147368c-1.0464342 0-1.8947368-.8483026-1.8947368-1.8947368 0-1.0464343.8483026-1.8947369 1.8947368-1.8947369 1.0464343 0 1.8947369.8483026 1.8947369 1.8947369 0 1.0464342-.8483026 1.8947368-1.8947369 1.8947368z"/></svg>