<svg width="74" height="12" viewBox="0 0 74 12" fill="none" xmlns="http://www.w3.org/2000/svg">
<rect width="74" height="12" fill="#F5F5F5"/>
<path d="M0.0568182 0.272727H1.31818L4.28409 7.51705H4.38636L7.35227 0.272727H8.61364V9H7.625V2.36932H7.53977L4.8125 9H3.85795L1.13068 2.36932H1.04545V9H0.0568182V0.272727ZM11.244 11.4545C11.0735 11.4545 10.9215 11.4403 10.788 11.4119C10.6545 11.3864 10.5621 11.3608 10.511 11.3352L10.7667 10.4489C11.011 10.5114 11.2269 10.5341 11.4144 10.517C11.6019 10.5 11.7681 10.4162 11.913 10.2656C12.0607 10.1179 12.1957 9.87784 12.3178 9.54545L12.5053 9.03409L10.0849 2.45455H11.1758L12.9826 7.67045H13.0508L14.8576 2.45455H15.9485L13.1701 9.95455C13.0451 10.2926 12.8903 10.5724 12.7056 10.794C12.521 11.0185 12.3065 11.1847 12.0621 11.2926C11.8207 11.4006 11.5479 11.4545 11.244 11.4545ZM24.3327 0.272727V9H23.31L18.5543 2.14773H18.4691V9H17.4123V0.272727H18.435L23.2077 7.14205H23.293V0.272727H24.3327ZM26.4474 9V0.272727H27.4531V3.49432H27.5384C27.6122 3.38068 27.7145 3.2358 27.8452 3.05966C27.9787 2.88068 28.169 2.72159 28.4162 2.58239C28.6662 2.44034 29.0043 2.36932 29.4304 2.36932C29.9815 2.36932 30.4673 2.5071 30.8878 2.78267C31.3082 3.05824 31.6364 3.44886 31.8722 3.95455C32.108 4.46023 32.2259 5.05682 32.2259 5.74432C32.2259 6.4375 32.108 7.03835 31.8722 7.54688C31.6364 8.05256 31.3097 8.4446 30.892 8.72301C30.4744 8.99858 29.9929 9.13636 29.4474 9.13636C29.027 9.13636 28.6903 9.06676 28.4375 8.92756C28.1847 8.78551 27.9901 8.625 27.8537 8.44602C27.7173 8.2642 27.6122 8.11364 27.5384 7.99432H27.419V9H26.4474ZM27.4361 5.72727C27.4361 6.22159 27.5085 6.65767 27.6534 7.03551C27.7983 7.41051 28.0099 7.70455 28.2884 7.91761C28.5668 8.12784 28.9077 8.23295 29.3111 8.23295C29.7315 8.23295 30.0824 8.12216 30.3636 7.90057C30.6477 7.67614 30.8608 7.375 31.0028 6.99716C31.1477 6.61648 31.2202 6.19318 31.2202 5.72727C31.2202 5.26705 31.1491 4.85227 31.0071 4.48295C30.8679 4.1108 30.6563 3.81676 30.3722 3.60085C30.0909 3.3821 29.7372 3.27273 29.3111 3.27273C28.902 3.27273 28.5582 3.37642 28.2798 3.58381C28.0014 3.78835 27.7912 4.07528 27.6491 4.4446C27.5071 4.81108 27.4361 5.23864 27.4361 5.72727ZM36.4233 9.13636C35.8097 9.13636 35.2813 8.99148 34.8381 8.7017C34.3949 8.41193 34.054 8.01278 33.8153 7.50426C33.5767 6.99574 33.4574 6.41477 33.4574 5.76136C33.4574 5.09659 33.5795 4.50994 33.8239 4.00142C34.071 3.49006 34.4148 3.09091 34.8551 2.80398C35.2983 2.5142 35.8153 2.36932 36.4062 2.36932C36.8665 2.36932 37.2812 2.45455 37.6506 2.625C38.0199 2.79545 38.3224 3.03409 38.5582 3.34091C38.794 3.64773 38.9403 4.00568 38.9972 4.41477H37.9915C37.9148 4.11648 37.7443 3.85227 37.4801 3.62216C37.2188 3.3892 36.8665 3.27273 36.4233 3.27273C36.0313 3.27273 35.6875 3.375 35.392 3.57955C35.0994 3.78125 34.8707 4.06676 34.706 4.43608C34.544 4.80256 34.4631 5.23295 34.4631 5.72727C34.4631 6.23295 34.5426 6.6733 34.7017 7.0483C34.8636 7.4233 35.0909 7.71449 35.3835 7.92188C35.679 8.12926 36.0256 8.23295 36.4233 8.23295C36.6847 8.23295 36.9219 8.1875 37.1349 8.09659C37.348 8.00568 37.5284 7.875 37.6761 7.70455C37.8239 7.53409 37.929 7.32955 37.9915 7.09091H38.9972C38.9403 7.47727 38.7997 7.82528 38.5753 8.13494C38.3537 8.44176 38.0597 8.68608 37.6932 8.8679C37.3295 9.04688 36.9063 9.13636 36.4233 9.13636ZM42.1889 9L39.8026 0.272727H40.8764L42.7003 7.38068H42.7855L44.6435 0.272727H45.8366L47.6946 7.38068H47.7798L49.6037 0.272727H50.6776L48.2912 9H47.2003L45.2741 2.04545H45.206L43.2798 9H42.1889ZM53.1747 9.15341C52.7599 9.15341 52.3835 9.07528 52.0455 8.91903C51.7074 8.75994 51.4389 8.53125 51.2401 8.23295C51.0412 7.93182 50.9418 7.56818 50.9418 7.14205C50.9418 6.76705 51.0156 6.46307 51.1634 6.23011C51.3111 5.99432 51.5085 5.80966 51.7557 5.67614C52.0028 5.54261 52.2756 5.44318 52.5739 5.37784C52.875 5.30966 53.1776 5.25568 53.4815 5.21591C53.8793 5.16477 54.2017 5.12642 54.4489 5.10085C54.6989 5.07244 54.8807 5.02557 54.9943 4.96023C55.1108 4.89489 55.169 4.78125 55.169 4.61932V4.58523C55.169 4.16477 55.054 3.83807 54.8239 3.60511C54.5966 3.37216 54.2514 3.25568 53.7884 3.25568C53.3082 3.25568 52.9318 3.3608 52.6591 3.57102C52.3864 3.78125 52.1946 4.00568 52.0838 4.24432L51.1293 3.90341C51.2997 3.50568 51.527 3.19602 51.8111 2.97443C52.098 2.75 52.4105 2.59375 52.7486 2.50568C53.0895 2.41477 53.4247 2.36932 53.7543 2.36932C53.9645 2.36932 54.206 2.39489 54.4787 2.44602C54.7543 2.49432 55.0199 2.59517 55.2756 2.74858C55.5341 2.90199 55.7486 3.13352 55.919 3.44318C56.0895 3.75284 56.1747 4.16761 56.1747 4.6875V9H55.169V8.11364H55.1179C55.0497 8.25568 54.9361 8.40767 54.777 8.5696C54.6179 8.73153 54.4063 8.86932 54.142 8.98295C53.8778 9.09659 53.5554 9.15341 53.1747 9.15341ZM53.3281 8.25C53.7259 8.25 54.0611 8.17188 54.3338 8.01562C54.6094 7.85938 54.8168 7.65767 54.956 7.41051C55.098 7.16335 55.169 6.90341 55.169 6.63068V5.71023C55.1264 5.76136 55.0327 5.80824 54.8878 5.85085C54.7457 5.89062 54.581 5.92614 54.3935 5.95739C54.2088 5.9858 54.0284 6.01136 53.8523 6.03409C53.679 6.05398 53.5384 6.07102 53.4304 6.08523C53.169 6.11932 52.9247 6.17472 52.6974 6.25142C52.473 6.32528 52.2912 6.4375 52.152 6.58807C52.0156 6.7358 51.9474 6.9375 51.9474 7.19318C51.9474 7.54261 52.0767 7.80682 52.3352 7.9858C52.5966 8.16193 52.9276 8.25 53.3281 8.25ZM59.016 0.272727V9H58.0103V0.272727H59.016ZM61.8636 0.272727V9H60.858V0.272727H61.8636ZM66.4499 9.13636C65.8192 9.13636 65.2752 8.99716 64.8178 8.71875C64.3633 8.4375 64.0124 8.04545 63.7653 7.54261C63.521 7.03693 63.3988 6.44886 63.3988 5.77841C63.3988 5.10795 63.521 4.51705 63.7653 4.00568C64.0124 3.49148 64.3562 3.09091 64.7965 2.80398C65.2397 2.5142 65.7567 2.36932 66.3477 2.36932C66.6886 2.36932 67.0252 2.42614 67.3576 2.53977C67.69 2.65341 67.9925 2.83807 68.2653 3.09375C68.538 3.34659 68.7553 3.68182 68.9173 4.09943C69.0792 4.51705 69.1602 5.03125 69.1602 5.64205V6.06818H64.1147V5.19886H68.1374C68.1374 4.82955 68.0636 4.5 67.9158 4.21023C67.771 3.92045 67.5636 3.69176 67.2937 3.52415C67.0266 3.35653 66.7113 3.27273 66.3477 3.27273C65.9471 3.27273 65.6005 3.37216 65.3079 3.57102C65.0181 3.76705 64.7951 4.02273 64.6388 4.33807C64.4826 4.65341 64.4045 4.99148 64.4045 5.35227V5.93182C64.4045 6.42614 64.4897 6.84517 64.6602 7.18892C64.8335 7.52983 65.0735 7.78977 65.3803 7.96875C65.6871 8.14489 66.0437 8.23295 66.4499 8.23295C66.7141 8.23295 66.9528 8.19602 67.1658 8.12216C67.3817 8.04545 67.5678 7.93182 67.7241 7.78125C67.8803 7.62784 68.0011 7.4375 68.0863 7.21023L69.0579 7.48295C68.9556 7.8125 68.7837 8.10227 68.5423 8.35227C68.3008 8.59943 68.0025 8.79261 67.6474 8.93182C67.2923 9.06818 66.8931 9.13636 66.4499 9.13636ZM73.5366 2.45455V3.30682H70.1445V2.45455H73.5366ZM71.1332 0.886364H72.1388V7.125C72.1388 7.40909 72.18 7.62216 72.2624 7.7642C72.3477 7.90341 72.4556 7.99716 72.5863 8.04545C72.7198 8.09091 72.8604 8.11364 73.0082 8.11364C73.119 8.11364 73.2099 8.10795 73.2809 8.09659C73.3519 8.08239 73.4087 8.07102 73.4513 8.0625L73.6559 8.96591C73.5877 8.99148 73.4925 9.01705 73.3704 9.04261C73.2482 9.07102 73.0934 9.08523 72.9059 9.08523C72.6218 9.08523 72.3434 9.02415 72.0707 8.90199C71.8008 8.77983 71.5763 8.59375 71.3974 8.34375C71.2212 8.09375 71.1332 7.77841 71.1332 7.39773V0.886364Z" fill="black"/>
</svg>
